<svg width="1278" height="832" viewBox="0 0 1278 832" fill="none" xmlns="http://www.w3.org/2000/svg">
<g clip-path="url(#clip0_1_3007)">
<path d="M1276.8 400.204C1244.98 428.802 1206.56 444.288 1160.4 441.831C1107.79 439.019 1060.5 404.808 1053.02 355.608C1049.06 329.663 1055.64 306.144 1075.59 286.224C1092.67 269.139 1114.33 259.054 1140.52 256.934C1167.08 254.8 1190.63 261.103 1210.51 276.566C1232.66 293.779 1243.94 322.905 1231.99 347.045C1223.03 365.126 1206.62 375.04 1184.58 378.212C1172.5 379.95 1160.62 379.322 1149.64 374.124C1135.97 367.655 1128.67 357.345 1126.95 344.133C1125.81 335.413 1133.91 326.902 1144.21 325.196C1154.51 323.49 1165.24 328.669 1168.03 337.448C1169.43 341.883 1170.29 342.699 1176.69 342.02C1190.21 340.606 1196.42 332.862 1193.64 321.275C1190.24 307.13 1174.24 295.542 1156.67 293.629C1126.15 290.301 1097.81 310.301 1094.94 335.123C1092.22 358.703 1101.66 378.098 1123.74 392.232C1149.03 408.385 1176.56 408.682 1204.9 399.235C1222.62 393.326 1238.22 384.336 1249.41 370.924C1269.14 347.26 1272.89 321.577 1259.2 294.633C1248.13 272.842 1229.31 256.676 1207.53 242.902C1184.05 228.049 1161.77 211.988 1141.4 194.002C1115.7 171.312 1093.44 146.389 1077.07 117.751C1063.12 93.373 1055.11 67.5681 1052.38 40.4558C1050.96 26.2861 1050.15 12.1291 1051.6 -2.06731L1093.93 -2.15406C1092.81 11.0224 1093.35 24.0983 1094.62 37.2421C1097.63 68.32 1109.56 96.5922 1129.08 122.602C1152.43 153.756 1182.51 179.35 1215.9 202.163C1230.51 212.159 1246.15 221.03 1259.31 232.582C1265.16 237.708 1270.77 243.105 1276.49 248.391L1276.8 400.204Z" fill="#00CD85" fill-opacity="0.64"/>
<path d="M116.661 831.692C109.13 827.796 101.13 824.658 93.6943 820.582C66.9985 805.958 46.3463 786.461 31.1076 762.55C21.0833 746.623 13.3967 729.666 8.22745 712.078C5.01101 701.358 11.2678 691.409 22.946 688.702C34.6243 685.994 45.8328 691.837 49.2009 702.515C55.8006 723.518 65.1452 743.392 80.4666 760.889C97.5652 780.456 120.192 793.257 146.182 802.19C164.251 808.394 182.937 811.697 202.295 811.145C229.838 810.395 255.731 803.755 280.411 793.248C302.832 783.696 322.588 771.064 340.854 756.264C380.511 724.128 425.744 700.329 479.069 689.341C492.967 686.476 507.109 685.449 521.387 685.059C549.241 684.309 576.377 687.352 602.35 696.209C654.4 714.019 687.77 746.706 703.278 793.213C707.296 805.339 709.598 817.774 709.161 830.477L666.834 830.564C667.06 825.018 666.512 819.469 665.203 814.037C656.811 775.676 633.018 747.352 591.187 732.211C551.946 718.008 511.481 718.257 471.293 729.482C431.106 740.707 396.95 760.615 366.614 785.742C351.065 798.562 333.806 809.72 315.203 818.977C306.212 823.489 296.708 827.114 287.565 831.341L116.661 831.692Z" fill="#00CD85" fill-opacity="0.64"/>
<path d="M365.689 -0.689211C368.887 1.25262 372.627 2.1186 376.08 3.50521C398.019 12.2384 417.713 23.9369 435.862 37.6493C442.517 42.6765 445.469 49.001 443.2 56.5842C441.114 63.6401 435.901 68.3034 427.647 70.0468C424.414 70.8068 421.013 70.8531 417.755 70.1817C414.497 69.5102 411.485 68.1422 408.991 66.2021C395.034 55.7746 380.201 46.4722 363.702 39.2533C333.911 26.2304 302.752 23.701 270.139 28.7601C227.826 35.323 196.026 55.4267 171.162 84.8629C151.117 108.604 138.585 135.137 131.153 163.858C120.235 206.045 99.8289 244.513 67.7051 277.917C49.2883 297.064 26.6776 311.713 1.60154 323.635C0.762606 323.976 -0.104363 324.263 -0.992201 324.493L-1.08031 281.504C0.20533 281.439 1.09019 280.681 2.06334 280.11C17.6648 270.817 31.3831 259.34 42.6592 246.149C65.495 219.562 81.4777 189.024 89.5222 156.607C98.672 120.36 115.255 87.3142 141.39 57.917C158.234 38.9741 178.295 23.1726 202.228 11.1767C211.355 6.59553 221.059 3.15728 230.707 -0.42644L365.689 -0.689211Z" fill="#00CD85" fill-opacity="0.64"/>
<path d="M813.755 830.263C814.511 809.363 809.933 789.174 803.407 769.191C798.537 754.293 791.959 739.891 786.977 725.029C782.835 712.95 780.564 700.444 780.225 687.843C779.799 667.147 784.774 647.618 799.754 630.856C815.203 613.608 836.006 604.898 860.92 603.467C879.19 602.417 896.542 605.287 912.053 614.047C935.167 627.098 947.609 645.953 950.78 669.556C952.702 683.856 950.134 697.438 941.367 709.846C920.878 738.823 870.996 738.877 851.922 709.884C845.312 699.837 843.445 688.767 844.715 677.379C845.562 669.751 854.358 663.277 863.804 662.537C872.891 661.825 882.229 667.082 885.343 674.675C886.304 677.083 886.795 679.612 886.796 682.161C886.779 683.662 886.87 685.162 887.069 686.653C887.878 691.547 889.967 693.935 893.937 694.537C896.377 694.965 898.913 694.663 901.13 693.678C903.348 692.694 905.116 691.086 906.145 689.117C909.327 683.266 909.714 677.059 908.256 670.822C904.993 656.85 896.864 645.842 880.444 641.826C863.665 637.7 847.825 639.855 835.279 651.48C826.989 659.125 823.886 668.838 823.036 679.081C821.743 694.671 825.271 709.654 831.163 724.279C840.21 746.747 848.825 769.313 853.162 792.927C855.439 805.258 856.75 817.659 856.081 830.176L813.755 830.263Z" fill="#00CD85" fill-opacity="0.64"/>
<path d="M783.3 -1.54518C791.212 44.4025 776.665 84.9809 744.084 121.173C737.629 128.402 730.126 134.877 721.762 140.439C712.662 146.455 699.673 144.727 692.509 136.865C685.738 129.425 686.8 118.017 695.213 111.822C717.828 95.1346 731.728 73.9374 739.073 49.259C744.1 32.6695 744.467 15.2768 740.143 -1.45673L783.3 -1.54518Z" fill="#00CD85" fill-opacity="0.64"/>
<path d="M1276.25 131.932C1265.72 125.373 1256.59 117.467 1248.14 109.052C1229.67 90.6891 1215.3 69.4944 1205.79 46.5551C1199.21 30.7805 1196.09 14.4856 1198.5 -2.36145L1240.83 -2.4482C1240.04 5.02106 1239.59 12.4758 1241.34 19.919C1246.72 42.8657 1259.88 62.4266 1276.13 80.6637L1276.25 131.932Z" fill="#00CD85" fill-opacity="0.64"/>
<path d="M87.9529 555.967C57.797 555.932 35.5065 539.767 30.9978 514.169C28.9858 502.754 33.0217 492.463 40.5175 483.128C48.4037 473.308 58.9463 465.909 70.017 459.035C84.8923 449.825 101.065 442.456 116.573 434.131C149.081 416.681 179.188 396.602 205.572 372.488C230.363 349.826 250.995 324.51 268.613 297.315C274.822 287.726 287.218 284.491 298.026 289.627C308.25 294.46 311.748 305.796 305.729 315.197C282.301 351.793 253.491 384.794 218.211 413.475C188.121 437.93 154.533 458.19 118.807 475.882C106.664 481.89 94.7781 488.273 84.0769 496.165C80.9788 498.37 78.1908 500.884 75.7706 503.656C71.0383 509.261 73.888 516.397 81.6625 518.323C88.5021 520.022 95.1677 518.628 101.713 517.103C119.123 513.06 134.752 505.615 149.981 497.479C173.914 484.672 196.06 469.649 217.775 454.226C228.405 446.674 243.113 448.987 249.817 458.958C254.8 466.374 253.446 476.167 245.759 481.765C214.404 504.599 181.913 526.07 145.049 541.948C129.49 548.65 113.305 553.891 95.8342 555.452C93.2551 555.693 90.596 555.795 87.9529 555.967Z" fill="#00CD85" fill-opacity="0.64"/>
<path d="M1038.1 465.566C1038.27 471.224 1037.83 476.885 1036.79 482.473C1034.89 491.879 1024.96 498.494 1014.46 497.641C1003.13 496.722 994.525 488.939 995.152 479.029C996.141 463.246 995.231 447.675 990.983 432.29C985.898 413.864 976.704 397.27 961.494 383.503C950.529 373.507 937.118 365.777 922.251 360.882C912.597 357.698 907.307 352.224 905.827 343.165C898.88 300.828 870.072 272.23 828.653 251.798C817.984 246.58 806.739 242.306 795.085 239.039C783.954 235.872 778.16 226.052 781.311 216.352C782.747 211.839 786.155 207.988 790.81 205.621C795.464 203.253 800.998 202.555 806.233 203.675C819.336 206.463 831.534 211.444 843.452 216.849C874.627 230.972 901.02 249.895 920.798 275.392C932.33 290.274 940.517 306.915 944.929 324.44C945.879 328.168 947.728 330.321 951.685 332.102C992.012 350.179 1017.35 378.867 1030.01 416.367C1035.43 432.421 1037.7 448.877 1038.1 465.566Z" fill="#00CD85" fill-opacity="0.64"/>
<path d="M-0.900756 353.607C21.694 346.283 42.8273 335.926 61.7278 322.915C86.3142 305.849 104.686 284.351 119.835 260.6C137.476 232.926 149.762 203.467 158.668 172.892C163.426 156.636 168.353 140.463 176.803 125.289C192.024 97.9318 213.293 75.4367 245.41 61.9333C261.64 55.1049 278.843 51.8316 297.003 51.309C333.034 50.2714 363.652 61.5731 390.407 81.4459C411.346 97.0039 426.983 116.109 433.907 139.517C443.404 171.594 437.883 201.739 414.523 228.475C396.11 249.543 371.563 262.476 341.223 265.991C312.607 269.302 287.427 261.775 265.417 245.852C250.005 234.699 240.041 220.533 234.903 203.778C225.256 172.36 238.514 137.9 272.349 121.037C305.162 104.682 344.46 115.453 360.252 148.342C366.075 160.485 366.203 172.404 358.648 183.999C354.373 190.553 348.563 196.271 340.519 199.082C330.511 202.57 320.197 200.58 313.942 192.036C308.336 184.317 310.223 173.607 318.685 167.981C322.106 165.706 321.919 163.814 320.371 161.002C313.862 149.124 299.507 146.893 288.105 156.214C276.146 165.946 272.537 177.983 275.273 191.88C279.356 212.576 304.755 229.449 327.995 229.783C357.777 230.214 387.584 208.284 393.839 181.992C399.342 158.857 392.361 138.645 375.258 120.68C363.044 107.85 348.249 97.8543 330.158 92.5247C300.287 83.6899 272.151 87.0965 247.126 104.448C229.119 116.917 217.996 133.567 209.912 151.999C203.211 167.267 200.01 183.395 194.563 198.965C185.25 225.548 173.907 251.371 158.639 275.865C148.344 292.58 136.113 308.341 122.135 322.902C103.626 342.069 81.3457 358.232 56.3312 370.637C40.6276 378.444 24.2148 385.122 7.25716 390.603C4.64742 391.447 2.09396 392.513 -0.797163 392.45L-0.900756 353.607Z" fill="#00CD85" fill-opacity="0.16"/>
<path d="M1103.6 829.669C1103.26 828.518 1102.19 828.098 1101.06 827.67C1071.37 816.37 1044.67 799.906 1022.6 779.295C995.532 754.084 977.655 724.846 972.56 690.278C969.888 672.158 969.819 654.117 976.443 636.533C984.688 614.779 1000.52 598.937 1025.69 591.058C1050.23 583.38 1075.01 583.447 1099.51 591.107C1113.35 595.433 1124.92 602.843 1134.79 612.433C1145.81 623.116 1152.58 635.846 1159.79 648.499C1166.35 659.989 1175.95 668.99 1190.09 673.808C1198.28 676.599 1206.62 676.846 1215.16 675.386C1227 673.335 1237.68 667.798 1245.37 659.711C1253.06 651.623 1257.31 641.48 1257.39 630.993C1257.63 614.254 1251.19 599.297 1242.4 584.879C1236.66 575.24 1229.92 566.069 1222.29 557.477C1212.86 547.04 1201.57 538.292 1189.54 530.294C1168.03 515.992 1143.47 507.57 1117.04 503.096C1106.58 501.329 1099.07 495.09 1098.16 486.757C1097.63 482.523 1098.8 478.259 1101.48 474.687C1104.15 471.114 1108.16 468.453 1112.84 467.153C1118.09 465.603 1123.4 466.438 1128.6 467.35C1152.56 471.472 1175.53 479.106 1196.53 489.925C1228.6 506.215 1255.16 529.542 1273.56 557.566C1274.47 558.951 1275.16 560.537 1277.18 561.067L1277.43 685.181C1273.62 687.13 1271.12 690.324 1267.75 692.744C1246.53 708 1222.44 715.233 1194.91 712.398C1165.86 709.407 1144.64 695.624 1128.48 675.127C1121.75 666.598 1117.79 656.83 1111.98 647.897C1107.27 640.682 1101.44 634.377 1093.48 629.651C1082.08 622.879 1069.19 621.685 1056 622.648C1034.26 624.239 1019.99 633.289 1015.42 652.976C1013.57 660.884 1013.03 668.98 1013.81 677.019C1015.18 691.293 1018.39 705.07 1025.43 718.119C1036.9 739.348 1053.88 756.71 1074.88 771.193C1096.22 786.052 1120.88 796.896 1147.31 803.037C1167.82 807.786 1188.68 809.983 1210 808.837C1220.08 808.371 1230.11 807.425 1240.07 806.002C1252.97 804.054 1265.28 800.347 1277.66 796.82C1277.68 806.756 1277.59 816.693 1277.81 826.635C1277.86 829.013 1277.27 829.479 1274.53 829.485C1217.54 829.435 1160.57 829.497 1103.6 829.669Z" fill="#00CD85" fill-opacity="0.48"/>
<path d="M-1.12241 245.462L-1.24463 185.832C1.07059 185.453 1.80166 183.669 2.74104 182.211C8.69288 172.653 13.5051 162.593 17.1026 152.186C22.3274 137.518 26.3777 122.56 31.8901 107.947C40.2382 85.8246 50.1689 64.3304 62.7289 43.7461C69.4862 32.6033 77.2993 21.9674 86.0872 11.9485C89.6169 7.94051 93.9861 4.45774 96.5961 -0.151628L156.492 -0.274388C156.288 0.515006 155.776 1.21908 155.043 1.71859C148.664 6.89038 142.182 11.993 136.172 17.5801C119.693 32.8436 105.967 50.1825 95.4601 69.008C81.3843 94.2203 70.7527 120.535 62.7104 147.662C58.4354 162.093 53.1856 176.263 45.898 189.792C36.9397 206.451 24.6473 221.224 10.9155 235.078C7.25739 238.761 4.31968 243.281 -1.12241 245.462Z" fill="#00CD85" fill-opacity="0.48"/>
<path d="M1023.65 -2.03781C1022.27 11.4373 1022.6 24.9158 1023.53 38.3932C1024.47 51.0564 1026.67 63.6242 1030.12 75.9537C1037.06 101.39 1048.84 125.639 1064.98 147.702C1071.09 156.086 1071.08 164.067 1065.21 170.895C1056.86 180.619 1038.96 180.413 1031.31 170.271C1009.96 142.159 994.972 110.773 987.142 77.7891C983.114 60.9275 981.138 43.9092 980.313 26.6874C979.854 17.0851 981.383 7.56886 980.533 -1.97718L1023.65 -2.03781Z" fill="#00CD85" fill-opacity="0.48"/>
<path d="M-0.385012 605.246C1.26736 604.875 1.75211 603.605 2.39665 602.467C5.13416 597.719 7.87161 592.977 10.0816 588.008C14.3187 578.5 26.5916 573.684 37.2124 577.205C48.4006 580.906 53.9402 591.226 49.7116 600.99C42.0333 618.756 30.8298 634.81 17.4116 649.717C13.8019 653.858 9.86023 657.773 5.61604 661.432C3.88601 662.878 2.14806 664.317 -0.278646 664.849L-0.385012 605.246Z" fill="#00CD85" fill-opacity="0.48"/>
<path d="M469.493 -0.901909C465.106 9.69493 446.729 13.3867 436.683 5.53052C434.179 3.5734 431.085 1.99885 429.562 -0.820068L469.493 -0.901909Z" fill="#00CD85" fill-opacity="0.48"/>
<path d="M320.619 624.918C320.436 622.164 321.301 619.434 323.079 617.147C324.425 615.349 324.024 614.497 321.977 613.357C316.732 610.448 310.835 608.415 306.386 604.437C300.081 598.799 299.537 590.494 305.146 583.853C309.814 578.297 319.713 576.12 327.003 579.35C333.51 582.235 339.793 585.467 346.125 588.658C353.28 592.21 360.805 595.168 368.6 597.494C373.193 598.823 377 601.665 379.2 605.409C381.401 609.152 381.819 613.498 380.365 617.508C379.086 621.137 376.081 623.577 372.819 625.789C365.123 630.984 356.634 635.106 348.033 639.014C337.014 643.994 325.467 640.259 321.406 630.845C320.628 629.051 320.68 627.234 320.619 624.918Z" fill="#00CD85" fill-opacity="0.48"/>
<path d="M-0.0497593 768.848C4.57039 774.767 8.337 781.124 12.8455 787.112C23.3687 801.273 35.7208 814.342 49.6617 826.067C51.8696 827.893 53.8783 829.893 55.9826 831.816C38.2054 831.853 20.4283 831.84 2.65135 831.981C0.383291 831.986 0.022954 831.529 0.0271173 829.663C0.0654255 809.389 -0.00820616 789.122 -0.0497593 768.848Z" fill="#00CD85" fill-opacity="0.16"/>
<path d="M742.686 830.409C741.755 811.233 737.27 792.315 729.402 774.383C720.642 754.26 708.145 735.52 692.408 718.906C679.058 704.781 662.689 693.95 644.422 685.091C617.882 672.235 589.434 664.229 559.589 659.791C541.902 657.066 523.91 656.13 505.972 657.002C481.737 658.293 458.532 663.742 436.147 671.796C406.469 682.48 379.33 696.957 353.872 713.886C340.466 722.81 327.804 732.474 315.19 742.221C290.424 761.374 262.87 776.38 230.036 782.722C189.483 790.55 152.636 783.324 120.142 760.884C91.7987 741.32 76.7148 714.988 70.9181 684.422C66.3001 660.094 69.0308 636.389 82.3224 614.326C98.0496 588.23 122.099 570.07 155.138 562.535C189.981 554.579 223.013 558.783 251.556 578.86C271.911 593.178 283.258 612.348 286.411 635.049C289.03 653.862 284.697 671.399 273.174 687.433C259.254 706.814 239.425 718.787 213.085 721.941C191.336 724.551 172.088 719.875 156.662 705.935C146.732 696.942 141.527 686.018 141.07 673.448C140.765 664.962 141.419 656.675 144.884 648.569C151.473 633.135 171.863 622.165 190.571 624.36C201.028 625.579 209.231 633.925 208.858 642.967C208.478 652.446 199.678 660.41 188.93 660.994C187.077 661.095 185.264 660.953 184.206 662.834C179.861 670.581 185.043 681.734 194.321 684.599C201.513 686.817 208.651 686.047 215.394 683.738C232.154 677.99 240.955 666.615 244.007 651.611C248.514 629.413 231.556 600.735 195.697 596.503C166.237 593.027 137.743 604.942 122.4 627.578C110.768 644.749 109.28 663.161 113.512 682.179C116.736 696.677 123.073 710.185 134.188 721.451C149.258 736.723 168.141 746.343 191.664 748.374C217.736 750.616 240.504 742.818 262.051 731.187C274.432 724.505 285.252 716.135 295.968 707.654C309.771 696.811 324.274 686.66 339.406 677.25C359.94 664.231 381.843 652.924 404.824 643.481C431.85 632.511 459.889 624.459 489.695 621.465C514.958 618.931 540.069 619.802 565.128 623.294C596.593 627.555 627.102 636.03 655.567 648.417C679.388 658.845 701.065 671.898 718.957 689.196C740.9 710.506 758.02 735.217 769.42 762.036C776.709 779.029 781.573 796.735 783.903 814.758C784.584 819.894 785.377 825.072 784.973 830.287L742.686 830.409Z" fill="#00CD85" fill-opacity="0.16"/>
<path d="M863.153 -1.70877C864.205 9.07799 865.912 19.8426 865.567 30.6946C864.637 59.8183 858.321 87.913 844.408 114.636C833.025 136.501 817.827 155.94 797.224 171.971C781.038 184.562 762.473 193.946 742.234 200.845C729.106 205.317 715.464 208.028 701.408 207.863C673.503 207.545 651.193 197.385 634.901 177.622C623.46 163.743 616.329 148.289 614.497 131.277C612.592 113.6 617.518 97.1847 628.196 82.0195C634.622 72.8953 642.976 65.154 651.017 57.1706C661.123 47.1514 667.896 35.891 667.549 22.156C667.442 15.3036 665.123 8.61572 660.857 2.85222C659.848 1.46753 658.911 0.0827043 657.933 -1.30204L705.85 -1.40025C705.969 -0.372571 706.158 0.648083 706.415 1.65638C713.977 24.4252 709.453 45.7072 696.093 65.9604C689.414 76.0835 679.807 84.1394 671.312 92.9904C662.817 101.841 656.48 111.742 656.656 123.675C656.879 138.838 663.742 151.742 675.815 162.464C683.311 169.112 693.179 171.311 703.592 170.978C714.005 170.644 723.671 167.851 733.127 164.212C758.264 154.537 778.374 139.817 793.195 119.651C807.069 100.783 815.635 80.2069 820.119 58.2385C822.256 47.7882 823.235 37.1844 823.041 26.573C822.862 17.1643 822.203 7.68026 820.052 -1.62043L863.153 -1.70877Z" fill="#00CD85" fill-opacity="0.16"/>
<path d="M347.429 831.219C351.669 826.994 357.317 824.265 362.35 820.905C376.282 811.627 389.087 801.207 402.724 791.625C424.89 776.012 450.401 764.369 477.779 757.371C490.295 754.135 502.867 751.238 515.882 750.123C543.829 747.729 570.446 751.107 593.827 765.398C616.424 779.219 628.962 798.608 632.541 822.39C633.074 825.12 633.325 827.885 633.292 830.654L590.966 830.74C589.138 811.586 578.751 797.726 557.844 790.371C543.547 785.345 528.636 785.313 513.915 787.611C487.098 791.791 461.814 799.699 439.545 813.786C431.083 819.142 422.541 824.436 415.303 831.1L347.429 831.219Z" fill="#00CD85" fill-opacity="0.16"/>
<path d="M1277.55 765.536C1274.52 765.681 1272.05 767.204 1269.36 768.146C1250.74 774.748 1230.91 778.405 1210.82 778.944C1173.62 779.928 1140.31 770.317 1110.34 751.741C1085.25 736.344 1065.09 715.655 1051.75 691.62C1048.29 685.505 1045.46 679.135 1043.31 672.584C1040.51 663.908 1045.83 654.107 1055.24 650.815C1065.74 647.132 1077.44 650.513 1082.3 658.948C1085.61 664.717 1087.19 671.135 1090.7 676.875C1108.33 705.691 1134.18 726.446 1169.93 737.203C1188.75 742.864 1208.15 743.58 1227.77 740.551C1245.88 737.741 1262.24 731.356 1277.45 722.554L1277.55 765.536Z" fill="#00CD85" fill-opacity="0.16"/>
<path d="M1276.31 163.127L1276.41 210.969C1269.27 206.186 1262.94 200.555 1255.47 196.105C1239.58 186.645 1224.29 176.497 1210.22 165.051C1188.92 147.705 1170.22 128.46 1155.32 106.539C1147.11 94.4837 1139.99 81.976 1135.11 68.6385C1126.64 45.7604 1122.7 21.7981 1123.46 -2.22837L1166.59 -2.31675C1166.03 -0.416245 1165.76 1.54093 1165.8 3.50229C1165.74 10.77 1166.28 18.0318 1167.44 25.2293C1170.08 42.9813 1175.27 60.1178 1184.54 76.1643C1195.89 95.819 1211.07 113.122 1228.5 128.979C1237.09 136.67 1246.25 143.868 1255.92 150.528C1262.42 155.07 1268.81 159.793 1276.31 163.127Z" fill="#00CD85" fill-opacity="0.16"/>
<path d="M568.505 -1.10478C565.462 2.66648 561.403 5.65631 557.864 9.03337C537.81 28.1631 523.456 49.9507 515.816 74.9902C514.42 79.5624 512.824 84.0865 511.324 88.6381C509.014 95.646 501.909 100.445 492.351 101.366C485.309 102.074 476.747 97.8824 472.998 92.3084C469.666 87.3437 469.639 82.0672 471.106 76.8847C478.82 49.6469 490.371 23.8713 510.299 1.37893C510.873 0.617879 511.379 -0.180615 511.811 -1.00939L568.505 -1.10478Z" fill="#00CD85" fill-opacity="0.16"/>
<path d="M1276.95 475.075C1271.31 478.119 1265.4 480.774 1259.28 483.016C1249.89 486.55 1238.06 482.65 1233.22 474.749C1228.01 466.245 1230.58 456.033 1239.66 450.821C1244.45 448.107 1249.63 445.947 1254.67 443.641C1262.44 440.055 1269.58 435.609 1276.89 431.399L1276.95 475.075Z" fill="#00CD85" fill-opacity="0.16"/>
<path d="M498.929 197.315C488.874 197.336 481.71 193.295 478.524 185.445C472.15 169.767 468.875 153.57 469.831 136.927C470.339 127.745 479.764 120.577 490.394 120.451C500.544 120.334 509.87 127.151 511.317 135.885C512.651 143.967 512.301 152.205 514.426 160.237C515.593 164.623 516.903 168.954 518.445 173.243C519.985 177.275 519.89 181.643 518.176 185.623C516.463 189.603 513.235 192.955 509.027 195.125C506.017 196.774 502.477 197.542 498.929 197.315V197.315Z" fill="#00CD85" fill-opacity="0.16"/>
<path d="M-0.774307 415.304C0.448268 415.641 1.57363 415.257 2.72302 414.957C55.3242 401.453 101.965 379.086 140.692 344.955C168.857 320.137 190.177 291.339 206.387 259.605C209.378 253.753 213.898 249.535 221.122 247.919C229.647 246.015 237.046 248.018 242.696 253.775C248.346 259.532 249.43 266.242 245.979 273.218C238.815 287.643 230.477 301.606 221.028 315.003C186.11 364.651 138.902 402.724 78.8673 428.689C53.4492 439.585 26.7744 448.111 -0.710532 454.126L-0.774307 415.304Z" fill="#00CD85" fill-opacity="0.32"/>
<path d="M933.415 -1.8528C933.895 6.09231 934.51 14.0302 934.83 21.9826C936.387 61.1135 927.256 98.3665 908.865 134.051C901.029 149.252 892.747 164.218 882.505 178.266C880.162 181.599 876.648 184.191 872.482 185.661C868.316 187.131 863.717 187.402 859.362 186.433C854.991 185.53 851.068 183.438 848.165 180.461C845.262 177.484 843.532 173.779 843.228 169.887C842.772 165.45 844.425 161.516 847.084 157.766C863.664 134.414 875.975 109.378 884.778 83.1161C891.715 62.4254 892.965 41.0599 892.059 19.6226C891.765 12.4745 890.936 5.34136 890.346 -1.79226L933.415 -1.8528Z" fill="#00CD85" fill-opacity="0.32"/>
<path d="M979.044 829.924C975.793 825.826 971.434 822.597 967.641 818.93C953.325 805.092 941.227 789.959 932.472 772.948C927.436 763.202 932.086 752.335 942.923 748.124C945.473 747.104 948.233 746.537 951.039 746.454C953.845 746.371 956.642 746.776 959.265 747.643C961.889 748.511 964.286 749.825 966.317 751.507C968.348 753.189 969.972 755.207 971.093 757.441C982.157 778.594 999.051 795.741 1019.07 810.795C1028.4 817.665 1038.24 824.007 1048.51 829.782L979.044 829.924Z" fill="#00CD85" fill-opacity="0.32"/>
<path d="M58.2628 -0.0591695C52.251 7.68828 46.7276 15.7129 41.7168 23.9794C35.9382 33.442 23.3754 37.0594 12.8959 32.359C2.4164 27.6586 -1.583 16.7808 3.86782 7.16636C5.21262 4.79226 6.5893 2.43196 7.95808 0.0716738L58.2628 -0.0591695Z" fill="#00CD85" fill-opacity="0.32"/>
<path d="M471.996 830.963C491.72 821.999 512.8 816.464 534.587 813.091C546.563 811.236 556.466 819.107 558.231 830.787L471.996 830.963Z" fill="#00CD85" fill-opacity="0.32"/>
<path d="M1062.2 521.77C1136.13 521.619 1203.2 562.931 1225.45 621.476C1227.35 626.478 1227.81 631.428 1225.39 636.349C1223.74 639.726 1220.96 642.599 1217.42 644.6C1213.88 646.601 1209.73 647.639 1205.5 647.581C1201.07 647.528 1196.77 646.266 1193.21 643.974C1189.65 641.681 1187.02 638.474 1185.68 634.808C1180.12 619.422 1170.44 605.398 1157.45 593.88C1135.2 574.067 1108.32 562.127 1076.49 559.315C1038.23 555.926 1005.71 567.385 977.424 589.16C973.549 592.149 969.986 595.415 966.263 598.543C957.684 605.647 944.715 605.66 936.363 598.604C932.417 595.251 930.14 590.69 930.019 585.896C929.897 581.102 931.94 576.456 935.711 572.951C963.06 547.656 995.728 530.421 1035.37 523.961C1044.22 522.504 1053.2 521.77 1062.2 521.77V521.77Z" fill="#00CD85" fill-opacity="0.32"/>
<path d="M910.51 204.404C910.743 197.179 914.477 191.485 922.153 188.086C929.828 184.686 937.385 185.399 944.405 189.642C955.299 196.282 965.358 203.898 974.416 212.365C986.323 223.419 996.616 235.706 1005.06 248.947C1006.74 251.571 1007.59 252.027 1010.14 249.456C1031.06 228.127 1058.35 212.223 1089.01 203.497C1099.16 200.571 1109.82 204.204 1114.67 212.063C1117.09 215.903 1117.86 220.365 1116.85 224.654C1115.83 228.943 1113.1 232.781 1109.13 235.483C1106.15 237.569 1102.55 238.437 1099.06 239.567C1071.29 248.603 1048.79 263.376 1032.64 285.154C1029.3 289.754 1026.51 294.639 1024.31 299.732C1020.78 307.692 1012.5 312.708 1003.51 312.366C993.931 312.004 986.549 306.66 983.521 298.38C971.66 266.343 951.312 239.523 919.55 219.695C913.625 215.998 910.707 210.921 910.51 204.404Z" fill="#00CD85" fill-opacity="0.32"/>
<path d="M541.549 122.316C541.287 88.1537 555.953 58.4957 580.088 31.8067C585.688 25.6346 591.655 19.7206 597.965 14.089C606.734 6.20815 619.942 5.76506 628.686 13.0345C637.269 20.1726 637.445 31.606 628.883 39.4378C615.332 51.8285 603.244 65.069 594.795 80.618C582.439 103.365 581.561 126.9 588.103 150.988C590.558 159.618 593.55 168.125 597.068 176.472C600.038 183.747 598.526 190.483 592.252 196.008C586.218 201.338 578.689 202.692 570.547 200.538C567.64 199.841 564.964 198.555 562.74 196.787C560.515 195.019 558.805 192.818 557.748 190.365C548.072 168.551 541.558 146.175 541.549 122.316Z" fill="#00CD85" fill-opacity="0.32"/>
<path d="M716.539 639.25C707.397 638.769 698.254 638.284 689.112 637.795C678.728 637.226 670.895 629.921 671.508 621.418C671.613 619.247 672.225 617.116 673.308 615.155C674.391 613.195 675.922 611.446 677.808 610.015C679.693 608.585 681.894 607.502 684.277 606.832C686.659 606.163 689.173 605.922 691.666 606.123C704.9 607.14 718.19 607.499 731.471 607.199C736.115 607.074 740.747 606.734 745.349 606.179C755.816 604.903 765.156 610.84 766.557 619.844C767.908 628.578 760.72 636.317 750.341 637.648C739.108 639.107 727.831 639.067 716.539 639.25Z" fill="#00CD85" fill-opacity="0.32"/>
</g>
<defs>
<clipPath id="clip0_1_3007">
<rect width="1277.78" height="832.049" fill="white" transform="translate(-1.70532 -0.0472412) rotate(-0.117431)"/>
</clipPath>
</defs>
</svg>
